<svg width="52" height="52" viewBox="0 0 52 52" fill="none" xmlns="http://www.w3.org/2000/svg">
<g clip-path="url(#clip0_2001_137)">
<path fill-rule="evenodd" clip-rule="evenodd" d="M10.6641 0H41.3359C47.2192 0.0157422 51.9843 4.78075 52 10.6637V41.3359C51.9843 47.219 47.2192 51.9842 41.3363 51.9998L10.6641 52C4.78095 51.9842 0.0158437 47.219 0.000203125 41.3362L0 10.6641C0.0158438 4.78075 4.78126 0.0157422 10.6641 0ZM37.466 15.5779C35.295 14.5848 33.0033 13.8802 30.6494 13.4818C30.3286 14.0579 30.0381 14.6504 29.7789 15.2567C28.5269 15.0678 27.2624 14.9727 25.9961 14.9723C24.732 14.9723 23.4615 15.0683 22.2129 15.2543C21.9578 14.6523 21.6617 14.0554 21.3403 13.4815C18.9863 13.8837 16.6944 14.5897 14.5221 15.5819C10.2077 21.9643 9.03855 28.187 9.62315 34.3215C12.1494 36.1874 14.9768 37.6065 17.9826 38.5173C18.6566 37.6074 19.2605 36.6387 19.7731 35.6307C18.795 35.2662 17.8511 34.8157 16.9525 34.2847C17.189 34.1131 17.4203 33.9365 17.6436 33.7649C20.2565 34.992 23.1115 35.6321 25.9999 35.6321C28.8885 35.6321 31.7435 34.992 34.3564 33.7648C34.5824 33.9492 34.8137 34.1259 35.0475 34.2845C34.1471 34.8166 33.2016 35.2682 32.2218 35.6341C32.7363 36.6444 33.3352 37.6093 34.0124 38.5185C37.0208 37.6106 39.8505 36.1915 42.3774 34.3234L42.3766 34.3241C43.0626 27.2102 41.2049 21.0445 37.466 15.5779ZM20.5125 30.5489C18.8834 30.5489 17.5374 29.0705 17.5374 27.2518C17.5374 25.433 18.8365 23.9415 20.5072 23.9415C22.1779 23.9415 23.5133 25.433 23.4848 27.2518C23.4562 29.0705 22.1727 30.5489 20.5125 30.5489ZM31.4874 30.5489C29.8557 30.5489 28.5151 29.0705 28.5151 27.2518C28.5151 25.433 29.8142 23.9415 31.4874 23.9415C33.1607 23.9415 34.4859 25.433 34.4572 27.2518C34.4287 29.0705 33.1478 30.5489 31.4874 30.5489Z" fill="#266E85"/>
</g>
<defs>
<clipPath id="clip0_2001_137">
<rect width="52" height="52" fill="white"/>
</clipPath>
</defs>
</svg>
