<svg width="52" height="52" viewBox="0 0 52 52" fill="none" xmlns="http://www.w3.org/2000/svg">
<g clip-path="url(#clip0_2001_131)">
<path d="M13.3385 41.4375C13.158 41.6406 12.9323 41.6068 12.6615 41.3359C12.3681 41.0877 12.3229 40.8733 12.526 40.6927C12.7066 40.4896 12.9323 40.5234 13.2031 40.7943C13.474 41.0425 13.5191 41.2569 13.3385 41.4375ZM11.9167 39.3724C12.1198 39.6432 12.1198 39.8576 11.9167 40.0156C11.7361 40.151 11.5443 40.0721 11.3411 39.7786C11.138 39.4852 11.138 39.2821 11.3411 39.1693C11.5443 39.0113 11.7361 39.079 11.9167 39.3724ZM9.85156 37.3411C9.73872 37.4991 9.59201 37.5217 9.41146 37.4089C9.18576 37.296 9.10677 37.1606 9.17448 37.0026C9.24219 36.8898 9.38889 36.8672 9.61458 36.9349C9.84028 37.0477 9.91927 37.1832 9.85156 37.3411ZM10.901 38.4922C10.7656 38.6502 10.5851 38.6163 10.3594 38.3906C10.1562 38.1424 10.1337 37.9618 10.2917 37.849C10.4271 37.7135 10.6076 37.7474 10.8333 37.9505C11.0365 38.1988 11.059 38.3793 10.901 38.4922ZM15.2682 42.2839C15.178 42.5547 14.9635 42.6224 14.625 42.487C14.2413 42.3967 14.0946 42.2274 14.1849 41.9792C14.2752 41.7309 14.4896 41.6519 14.8281 41.7422C15.1892 41.855 15.3359 42.0356 15.2682 42.2839ZM17.401 42.4531C17.401 42.7014 17.2205 42.8255 16.8594 42.8255C16.4757 42.8707 16.2839 42.7465 16.2839 42.4531C16.2839 42.2049 16.4644 42.0807 16.8255 42.0807C17.2092 42.0356 17.401 42.1597 17.401 42.4531ZM19.3646 42.1146C19.4097 42.3403 19.2517 42.4983 18.8906 42.5885C18.5295 42.6788 18.3264 42.5885 18.2812 42.3177C18.2361 42.0469 18.3941 41.8776 18.7552 41.8099C19.1163 41.7648 19.3194 41.8663 19.3646 42.1146ZM52 9.75V42.25C52 44.9358 51.0464 47.2322 49.1393 49.1393C47.2322 51.0464 44.9358 52 42.25 52H34.6667C34.3056 52 34.0291 51.9887 33.8372 51.9661C33.6454 51.9436 33.4254 51.8872 33.1771 51.7969C32.9288 51.7066 32.7483 51.543 32.6354 51.306C32.5226 51.069 32.4661 50.7587 32.4661 50.375V42.2839C32.4661 40.0946 31.8793 38.4922 30.7057 37.4766C31.9922 37.3411 33.1489 37.138 34.1758 36.8672C35.2027 36.5964 36.2635 36.1562 37.3581 35.5469C38.4527 34.9375 39.3668 34.1871 40.1003 33.2956C40.8338 32.4041 41.4319 31.2192 41.8945 29.7409C42.3572 28.2626 42.5885 26.5642 42.5885 24.6458C42.5885 21.9149 41.697 19.5903 39.9141 17.6719C40.7491 15.6181 40.6589 13.316 39.6432 10.7656C39.0113 10.5625 38.0972 10.6866 36.901 11.138C35.7049 11.5894 34.6667 12.0859 33.7865 12.6276L32.5 13.4401C30.401 12.8533 28.2344 12.5599 26 12.5599C23.7656 12.5599 21.599 12.8533 19.5 13.4401C19.1389 13.1918 18.6593 12.8872 18.0612 12.526C17.4631 12.1649 16.5208 11.7305 15.2344 11.2227C13.9479 10.7148 12.9774 10.5625 12.3229 10.7656C11.3299 13.316 11.2509 15.6181 12.0859 17.6719C10.303 19.5903 9.41146 21.9149 9.41146 24.6458C9.41146 26.5642 9.6428 28.2569 10.1055 29.724C10.5681 31.191 11.1606 32.3759 11.8828 33.2786C12.605 34.1814 13.5135 34.9375 14.6081 35.5469C15.7027 36.1562 16.7635 36.5964 17.7904 36.8672C18.8173 37.138 19.974 37.3411 21.2604 37.4766C20.3576 38.2891 19.8047 39.4514 19.6016 40.9635C19.1276 41.1892 18.6198 41.3585 18.0781 41.4714C17.5365 41.5842 16.8932 41.6406 16.1484 41.6406C15.4036 41.6406 14.6645 41.398 13.931 40.9128C13.1975 40.4275 12.5712 39.7222 12.0521 38.7969C11.6233 38.0747 11.076 37.4879 10.4102 37.0365C9.74436 36.5851 9.18576 36.3142 8.73438 36.224L8.05729 36.1224C7.58333 36.1224 7.25608 36.1732 7.07552 36.2747C6.89497 36.3763 6.83854 36.5061 6.90625 36.6641C6.97396 36.822 7.07552 36.98 7.21094 37.138C7.34635 37.296 7.49306 37.4314 7.65104 37.5443L7.88802 37.7135C8.38455 37.9392 8.87543 38.3681 9.36068 39C9.84592 39.6319 10.2014 40.2075 10.4271 40.7266L10.7656 41.5052C11.059 42.3629 11.5556 43.0569 12.2552 43.5872C12.9549 44.1176 13.7109 44.4562 14.5234 44.6029C15.3359 44.7496 16.1202 44.8286 16.8763 44.8398C17.6324 44.8511 18.2587 44.8116 18.7552 44.7214L19.5339 44.5859C19.5339 45.4436 19.5395 46.6059 19.5508 48.0729C19.5621 49.5399 19.5677 50.3073 19.5677 50.375C19.5677 50.8715 19.4436 51.2496 19.1953 51.5091C18.947 51.7687 18.6988 51.9154 18.4505 51.9492C18.2023 51.9831 17.8299 52 17.3333 52H9.75C7.06424 52 4.7678 51.0464 2.86068 49.1393C0.953559 47.2322 0 44.9358 0 42.25V9.75C0 7.06424 0.953559 4.7678 2.86068 2.86068C4.7678 0.953559 7.06424 0 9.75 0H42.25C44.9358 0 47.2322 0.953559 49.1393 2.86068C51.0464 4.7678 52 7.06424 52 9.75Z" fill="#266E85"/>
</g>
<defs>
<clipPath id="clip0_2001_131">
<rect width="52" height="52" fill="white"/>
</clipPath>
</defs>
</svg>
