<svg width="143" height="51" viewBox="0 0 143 51" fill="none" xmlns="http://www.w3.org/2000/svg">
<path d="M63.6398 36.4343C62.0198 36.4343 60.5298 36.1743 59.1698 35.6543C57.8098 35.1143 56.6298 34.3643 55.6298 33.4043C54.6298 32.4243 53.8498 31.2843 53.2898 29.9843C52.7298 28.6843 52.4498 27.2543 52.4498 25.6943C52.4498 24.1343 52.7298 22.7043 53.2898 21.4043C53.8498 20.1043 54.6298 18.9743 55.6298 18.0143C56.6498 17.0343 57.8398 16.2843 59.1998 15.7643C60.5598 15.2243 62.0598 14.9543 63.6998 14.9543C65.3598 14.9543 66.8798 15.2243 68.2598 15.7643C69.6398 16.3043 70.8098 17.1143 71.7698 18.1943L69.9098 20.0543C69.0498 19.2143 68.1098 18.6043 67.0898 18.2243C66.0898 17.8243 64.9998 17.6243 63.8198 17.6243C62.6198 17.6243 61.4998 17.8243 60.4598 18.2243C59.4398 18.6243 58.5498 19.1843 57.7898 19.9043C57.0498 20.6243 56.4698 21.4843 56.0498 22.4843C55.6498 23.4643 55.4498 24.5343 55.4498 25.6943C55.4498 26.8343 55.6498 27.9043 56.0498 28.9043C56.4698 29.8843 57.0498 30.7443 57.7898 31.4843C58.5498 32.2043 59.4398 32.7643 60.4598 33.1643C61.4798 33.5643 62.5898 33.7643 63.7898 33.7643C64.9098 33.7643 65.9798 33.5943 66.9998 33.2543C68.0398 32.8943 68.9998 32.3043 69.8798 31.4843L71.5898 33.7643C70.5498 34.6443 69.3298 35.3143 67.9298 35.7743C66.5498 36.2143 65.1198 36.4343 63.6398 36.4343ZM68.7098 33.3743V25.5743H71.5898V33.7643L68.7098 33.3743ZM77.6036 42.1943C76.8436 42.1943 76.1036 42.0643 75.3836 41.8043C74.6636 41.5643 74.0436 41.2043 73.5236 40.7243L74.7536 38.5643C75.1536 38.9443 75.5936 39.2343 76.0736 39.4343C76.5536 39.6343 77.0636 39.7343 77.6036 39.7343C78.3036 39.7343 78.8836 39.5543 79.3436 39.1943C79.8036 38.8343 80.2336 38.1943 80.6336 37.2743L81.6236 35.0843L81.9236 34.7243L88.1636 20.2943H90.9836L83.2736 37.7843C82.8136 38.9043 82.2936 39.7843 81.7136 40.4243C81.1536 41.0643 80.5336 41.5143 79.8536 41.7743C79.1736 42.0543 78.4236 42.1943 77.6036 42.1943ZM81.3836 36.7043L74.1236 20.2943H77.1236L83.3036 34.4543L81.3836 36.7043ZM102.101 36.3743C100.741 36.3743 99.5114 36.0743 98.4114 35.4743C97.3314 34.8543 96.4714 33.9443 95.8314 32.7443C95.2114 31.5443 94.9014 30.0443 94.9014 28.2443C94.9014 26.4443 95.2214 24.9443 95.8614 23.7443C96.5214 22.5443 97.3914 21.6443 98.4714 21.0443C99.5714 20.4443 100.781 20.1443 102.101 20.1443C103.661 20.1443 105.041 20.4843 106.241 21.1643C107.441 21.8443 108.391 22.7943 109.091 24.0143C109.791 25.2143 110.141 26.6243 110.141 28.2443C110.141 29.8643 109.791 31.2843 109.091 32.5043C108.391 33.7243 107.441 34.6743 106.241 35.3543C105.041 36.0343 103.661 36.3743 102.101 36.3743ZM93.6714 36.1943V13.9343H96.5514V24.5243L96.2514 28.2143L96.4314 31.9043V36.1943H93.6714ZM101.861 33.8543C102.881 33.8543 103.791 33.6243 104.591 33.1643C105.411 32.7043 106.051 32.0543 106.511 31.2143C106.991 30.3543 107.231 29.3643 107.231 28.2443C107.231 27.1043 106.991 26.1243 106.511 25.3043C106.051 24.4643 105.411 23.8143 104.591 23.3543C103.791 22.8943 102.881 22.6643 101.861 22.6643C100.861 22.6643 99.9514 22.8943 99.1314 23.3543C98.3314 23.8143 97.6914 24.4643 97.2114 25.3043C96.7514 26.1243 96.5214 27.1043 96.5214 28.2443C96.5214 29.3643 96.7514 30.3543 97.2114 31.2143C97.6914 32.0543 98.3314 32.7043 99.1314 33.1643C99.9514 33.6243 100.861 33.8543 101.861 33.8543ZM121.201 36.3743C119.501 36.3743 118.001 36.0243 116.701 35.3243C115.421 34.6243 114.421 33.6643 113.701 32.4443C113.001 31.2243 112.651 29.8243 112.651 28.2443C112.651 26.6643 112.991 25.2643 113.671 24.0443C114.371 22.8243 115.321 21.8743 116.521 21.1943C117.741 20.4943 119.111 20.1443 120.631 20.1443C122.171 20.1443 123.531 20.4843 124.711 21.1643C125.891 21.8443 126.811 22.8043 127.471 24.0443C128.151 25.2643 128.491 26.6943 128.491 28.3343C128.491 28.4543 128.481 28.5943 128.461 28.7543C128.461 28.9143 128.451 29.0643 128.431 29.2043H114.901V27.1343H126.931L125.761 27.8543C125.781 26.8343 125.571 25.9243 125.131 25.1243C124.691 24.3243 124.081 23.7043 123.301 23.2643C122.541 22.8043 121.651 22.5743 120.631 22.5743C119.631 22.5743 118.741 22.8043 117.961 23.2643C117.181 23.7043 116.571 24.3343 116.131 25.1543C115.691 25.9543 115.471 26.8743 115.471 27.9143V28.3943C115.471 29.4543 115.711 30.4043 116.191 31.2443C116.691 32.0643 117.381 32.7043 118.261 33.1643C119.141 33.6243 120.151 33.8543 121.291 33.8543C122.231 33.8543 123.081 33.6943 123.841 33.3743C124.621 33.0543 125.301 32.5743 125.881 31.9343L127.471 33.7943C126.751 34.6343 125.851 35.2743 124.771 35.7143C123.711 36.1543 122.521 36.3743 121.201 36.3743ZM132.49 36.1943V20.2943H135.25V24.6143L134.98 23.5343C135.42 22.4343 136.16 21.5943 137.2 21.0143C138.24 20.4343 139.52 20.1443 141.04 20.1443V22.9343C140.92 22.9143 140.8 22.9043 140.68 22.9043C140.58 22.9043 140.48 22.9043 140.38 22.9043C138.84 22.9043 137.62 23.3643 136.72 24.2843C135.82 25.2043 135.37 26.5343 135.37 28.2743V36.1943H132.49Z" fill="#B9B9B9"/>
<g filter="url(#filter0_d_27_79)">
<path fill-rule="evenodd" clip-rule="evenodd" d="M20.2757 0.161614L38.7579 14.5995L38.947 36.0783L20.5162 48.0363L8.77056 38.8511L8.98384 15.702L19.9872 10.3007L31.0541 19.0383L31.1574 30.7697L20.5137 38.0748L16.294 35.4889L16.1622 20.5123L19.7501 17.9988L20.8976 19.6368L18.1714 21.5467L18.2842 34.3629L20.4521 35.6914L29.1481 29.723L29.0626 20.0142L19.7371 12.6514L10.9724 16.9538L10.7796 37.8832L20.6244 45.582L36.9374 34.9981L36.7665 15.5818L20.0644 2.53448L3.18993 11.4389L3.31152 35.7117L1.31154 35.7217L1.18388 10.2361L20.2757 0.161614Z" fill="#CCFF00"/>
</g>
<defs>
<filter id="filter0_d_27_79" x="0.183899" y="0.161621" width="39.7631" height="49.8748" filterUnits="userSpaceOnUse" color-interpolation-filters="sRGB">
<feFlood flood-opacity="0" result="BackgroundImageFix"/>
<feColorMatrix in="SourceAlpha" type="matrix" values="0 0 0 0 0 0 0 0 0 0 0 0 0 0 0 0 0 0 127 0" result="hardAlpha"/>
<feOffset dy="1"/>
<feGaussianBlur stdDeviation="0.5"/>
<feComposite in2="hardAlpha" operator="out"/>
<feColorMatrix type="matrix" values="0 0 0 0 0 0 0 0 0 0 0 0 0 0 0 0 0 0 0.25 0"/>
<feBlend mode="normal" in2="BackgroundImageFix" result="effect1_dropShadow_27_79"/>
<feBlend mode="normal" in="SourceGraphic" in2="effect1_dropShadow_27_79" result="shape"/>
</filter>
</defs>
</svg>
