<svg width="52" height="52" viewBox="0 0 52 52" fill="none" xmlns="http://www.w3.org/2000/svg">
<g clip-path="url(#clip0_2001_133)">
<path fill-rule="evenodd" clip-rule="evenodd" d="M8 0C3.58172 0 0 3.58172 0 8V44C0 48.4183 3.58172 52 8 52H44C48.4183 52 52 48.4183 52 44V8C52 3.58172 48.4183 0 44 0H8ZM43.9787 11.5063L37.8693 40.8933C37.7254 41.5871 36.9118 41.9015 36.3377 41.4843L27.9977 35.4294C27.4914 35.0617 26.801 35.0813 26.3163 35.4765L21.6923 39.2457C21.1558 39.6846 20.3471 39.44 20.1416 38.7791L18.0961 32.2007C17.3611 29.837 15.5733 27.9466 13.2541 27.0811L8.63566 25.3574C7.79303 25.0417 7.78583 23.8521 8.62606 23.5285L42.6697 10.3953C43.3914 10.1162 44.136 10.7485 43.9787 11.5063Z" fill="#266E85"/>
<path fill-rule="evenodd" clip-rule="evenodd" d="M35.835 16.82L19.6231 26.8048C19.0018 27.1882 18.7093 27.9386 18.9098 28.6411L20.6626 34.8001C20.7872 35.2365 21.4204 35.1919 21.4811 34.741L21.9366 31.3635C22.0227 30.7276 22.3259 30.1415 22.7963 29.7039L36.1756 17.2671C36.4261 17.0351 36.1262 16.6411 35.835 16.82Z" fill="#266E85"/>
</g>
<defs>
<clipPath id="clip0_2001_133">
<rect width="52" height="52" fill="white"/>
</clipPath>
</defs>
</svg>
