<svg width="52" height="52" viewBox="0 0 52 52" fill="none" xmlns="http://www.w3.org/2000/svg">
<g clip-path="url(#clip0_2001_139)">
<path fill-rule="evenodd" clip-rule="evenodd" d="M47.1249 0H4.875C2.19375 0 0 2.19375 0 4.875V47.125C0 49.8063 2.19375 52 4.875 52H47.1249C49.8062 52 51.9999 49.8063 51.9999 47.125V4.875C51.9999 2.19375 49.8062 0 47.1249 0ZM42.2546 15.9197C41.0399 16.4597 39.7501 16.8117 38.4295 16.9638C39.8037 16.1443 40.8583 14.8334 41.3622 13.274C40.0734 14.0369 38.6425 14.5973 37.1301 14.8957C35.9075 13.6022 34.1772 12.797 32.2598 12.797C28.5767 12.797 25.5941 15.7777 25.5941 19.4608C25.5941 19.9772 25.6497 20.4867 25.7639 20.9781C20.2238 20.695 15.3113 18.0425 12.0206 14.0081C11.4288 15.0258 11.1169 16.182 11.1166 17.3592C11.1166 19.672 12.2913 21.7161 14.081 22.9051C12.987 22.8734 11.963 22.5712 11.058 22.076V22.1604C11.058 25.3906 13.3574 28.0892 16.4092 28.6994C15.8363 28.8547 15.2455 28.9334 14.652 28.9337C14.2221 28.9337 13.8066 28.8914 13.3949 28.8137C14.2442 31.4614 16.7028 33.3922 19.622 33.4449C17.3361 35.2357 14.4649 36.3019 11.3383 36.3019C10.798 36.3019 10.2711 36.2702 9.74529 36.2088C12.702 38.107 16.2066 39.2029 19.9724 39.2029C32.2359 39.2029 38.9448 29.0421 38.9448 20.2315C38.9448 19.9388 38.94 19.6528 38.9257 19.3659C40.2279 18.435 41.3603 17.2585 42.2508 15.9226L42.2546 15.9197Z" fill="#266E85"/>
</g>
<defs>
<clipPath id="clip0_2001_139">
<rect width="52" height="52" fill="white"/>
</clipPath>
</defs>
</svg>
